<svg width="25" height="25" viewBox="0 0 25 25" fill="none" xmlns="http://www.w3.org/2000/svg">
<path d="M17.4595 3.71881C17.7221 3.45616 18.0339 3.24782 18.3771 3.10568C18.7202 2.96354 19.088 2.89038 19.4595 2.89038C19.8309 2.89038 20.1987 2.96354 20.5419 3.10568C20.885 3.24782 21.1968 3.45616 21.4595 3.71881C21.7221 3.98145 21.9305 4.29326 22.0726 4.63642C22.2147 4.97958 22.2879 5.34737 22.2879 5.71881C22.2879 6.09024 22.2147 6.45804 22.0726 6.8012C21.9305 7.14436 21.7221 7.45616 21.4595 7.71881L7.95947 21.2188L2.45947 22.7188L3.95947 17.2188L17.4595 3.71881Z" stroke="#5603AD" stroke-width="2" stroke-linecap="round" stroke-linejoin="round"/>
</svg>
